<svg width="125" height="118" viewBox="0 0 125 118" xmlns="http://www.w3.org/2000/svg" role="img" aria-label="Practo">
  <!-- Cropped from https://www.practo.com/bundles/practopractoapp/images/logos/practo_new_logo.svg -->
  <g fill="none" fill-rule="evenodd">
    <path
      d="M39.818 57.187c0-10.969-8.892-19.863-19.864-19.863-10.974 0-19.87 8.894-19.87 19.863 0 10.972 8.896 19.865 19.87 19.865 10.972 0 19.864-8.893 19.864-19.865"
      fill="#2CB7DF"
    />
    <path
      d="M86.934 75.017c-9.657 0-17.484-7.166-17.484-17.83 0-10.662 7.827-17.826 17.484-17.826 9.653 0 17.481 7.111 17.481 17.826s-7.828 17.83-17.481 17.83zm3.222-55.519c-9.389 0-16.078 3.555-21.094 8.312v-6.151h-19.42v96.28h20.173l-.002-31.446c5.018 4.934 11.649 8.317 20.343 8.317 18.027 0 34.435-15.063 34.435-37.655 0-22.595-16.566-37.657-34.435-37.657z"
      fill="#263077"
    />
  </g>
</svg>
